<svg width="26" height="25" viewBox="0 0 26 25" fill="none" xmlns="http://www.w3.org/2000/svg">
<mask id="path-1-outside-1" maskUnits="userSpaceOnUse" x="0" y="0" width="26" height="25" fill="black">
<rect fill="white" width="26" height="25"/>
<path fill-rule="evenodd" clip-rule="evenodd" d="M18.4059 1C20.6169 1 22.5791 1.97245 23.7907 3.66597C25.2012 5.63733 25.3837 8.3152 24.3073 11.2074C23.0335 14.609 14.3045 22.64 13.3132 23.5463C13.2213 23.6283 13.1158 23.6667 13.0009 23.6667C12.8859 23.6667 12.7777 23.6257 12.6939 23.5502C12.3004 23.193 3.02099 14.7532 1.69711 11.2101C0.615279 8.32049 0.797837 5.63997 2.20827 3.66597C3.41992 1.97113 5.38208 1 7.59442 1C7.86893 1 8.16508 1.01852 8.47476 1.05425C10.944 1.34929 12.2895 2.56121 12.9995 3.59452C13.7135 2.56253 15.0604 1.34929 17.5242 1.05425C17.8339 1.01852 18.1301 1 18.4059 1ZM8.36522 1.93143C8.10694 1.901 7.84865 1.88645 7.59442 1.88645C5.68229 1.88645 3.98788 2.71997 2.95067 4.17402C1.71333 5.90458 1.57134 8.29667 2.54905 10.9084C3.64845 13.8535 11.2415 20.9941 13.0009 22.6214C14.7588 20.9941 22.3573 13.8522 23.4567 10.9071C24.4304 8.29535 24.287 5.90458 23.0524 4.17534C21.8651 2.5149 19.8394 1.67476 17.6324 1.93275C15.1253 2.23309 13.9502 3.58922 13.4065 4.67413C13.3376 4.81306 13.1848 4.90038 13.0009 4.9017C12.821 4.9017 12.6668 4.81438 12.5952 4.67546C12.0515 3.58922 10.8751 2.23176 8.36522 1.93143Z"/>
</mask>
<path fill-rule="evenodd" clip-rule="evenodd" d="M18.4059 1C20.6169 1 22.5791 1.97245 23.7907 3.66597C25.2012 5.63733 25.3837 8.3152 24.3073 11.2074C23.0335 14.609 14.3045 22.64 13.3132 23.5463C13.2213 23.6283 13.1158 23.6667 13.0009 23.6667C12.8859 23.6667 12.7777 23.6257 12.6939 23.5502C12.3004 23.193 3.02099 14.7532 1.69711 11.2101C0.615279 8.32049 0.797837 5.63997 2.20827 3.66597C3.41992 1.97113 5.38208 1 7.59442 1C7.86893 1 8.16508 1.01852 8.47476 1.05425C10.944 1.34929 12.2895 2.56121 12.9995 3.59452C13.7135 2.56253 15.0604 1.34929 17.5242 1.05425C17.8339 1.01852 18.1301 1 18.4059 1ZM8.36522 1.93143C8.10694 1.901 7.84865 1.88645 7.59442 1.88645C5.68229 1.88645 3.98788 2.71997 2.95067 4.17402C1.71333 5.90458 1.57134 8.29667 2.54905 10.9084C3.64845 13.8535 11.2415 20.9941 13.0009 22.6214C14.7588 20.9941 22.3573 13.8522 23.4567 10.9071C24.4304 8.29535 24.287 5.90458 23.0524 4.17534C21.8651 2.5149 19.8394 1.67476 17.6324 1.93275C15.1253 2.23309 13.9502 3.58922 13.4065 4.67413C13.3376 4.81306 13.1848 4.90038 13.0009 4.9017C12.821 4.9017 12.6668 4.81438 12.5952 4.67546C12.0515 3.58922 10.8751 2.23176 8.36522 1.93143Z" fill="white"/>
<path d="M23.7907 3.66597L23.4654 3.89871L23.7907 3.66597ZM24.3073 11.2074L24.6819 11.3477L24.6822 11.3469L24.3073 11.2074ZM13.3132 23.5463L13.5795 23.8448L13.5831 23.8415L13.3132 23.5463ZM12.6939 23.5502L12.425 23.8464L12.4264 23.8476L12.6939 23.5502ZM1.69711 11.2101L2.0718 11.0701L2.07171 11.0698L1.69711 11.2101ZM2.20827 3.66597L1.88287 3.43334L1.88281 3.43342L2.20827 3.66597ZM8.47476 1.05425L8.52221 0.657067L8.52059 0.656881L8.47476 1.05425ZM12.9995 3.59452L12.6698 3.82103L12.9984 4.29921L13.3284 3.82211L12.9995 3.59452ZM17.5242 1.05425L17.4784 0.656877L17.4767 0.657083L17.5242 1.05425ZM8.36522 1.93143L8.41275 1.53426L8.41202 1.53418L8.36522 1.93143ZM2.95067 4.17402L3.27606 4.40666L3.27632 4.4063L2.95067 4.17402ZM2.54905 10.9084L2.92379 10.7685L2.92366 10.7682L2.54905 10.9084ZM13.0009 22.6214L12.7292 22.9151L13.001 23.1664L13.2726 22.915L13.0009 22.6214ZM23.4567 10.9071L23.8315 11.047L23.8315 11.0468L23.4567 10.9071ZM23.0524 4.17534L23.3779 3.94291L23.3778 3.94268L23.0524 4.17534ZM17.6324 1.93275L17.586 1.53546L17.5849 1.53559L17.6324 1.93275ZM13.4065 4.67413L13.0489 4.49494L13.0483 4.49627L13.4065 4.67413ZM13.0009 4.9017V5.30171L13.0037 5.30169L13.0009 4.9017ZM12.5952 4.67546L12.2374 4.85449L12.2397 4.85885L12.5952 4.67546ZM24.116 3.43322C22.8241 1.62749 20.7368 0.6 18.4059 0.6V1.4C20.497 1.4 22.3341 2.31741 23.4654 3.89871L24.116 3.43322ZM24.6822 11.3469C25.7907 8.36853 25.625 5.54227 24.116 3.43322L23.4654 3.89871C24.7773 5.73238 24.9768 8.26187 23.9324 11.0679L24.6822 11.3469ZM13.5831 23.8415C14.0808 23.3865 16.5178 21.1458 18.9916 18.5908C20.2282 17.3137 21.4786 15.9533 22.5018 14.6953C23.5157 13.4488 24.3384 12.265 24.6819 11.3477L23.9327 11.0671C23.6393 11.8506 22.8932 12.9463 21.8811 14.1906C20.8784 15.4234 19.6457 16.7652 18.4169 18.0343C15.96 20.5718 13.5369 22.7998 13.0433 23.2511L13.5831 23.8415ZM13.0009 24.0667C13.2134 24.0667 13.4138 23.9926 13.5795 23.8448L13.047 23.2478C13.0352 23.2583 13.0274 23.2618 13.0236 23.2633C13.0197 23.2648 13.013 23.2667 13.0009 23.2667V24.0667ZM12.4264 23.8476C12.5853 23.9905 12.7893 24.0667 13.0009 24.0667V23.2667C12.9825 23.2667 12.9702 23.2608 12.9614 23.2528L12.4264 23.8476ZM1.32241 11.3501C1.67887 12.3041 2.54654 13.5408 3.60926 14.8364C4.6818 16.144 5.98696 17.5515 7.25809 18.8542C9.80101 21.4603 12.2262 23.6659 12.425 23.8464L12.9627 23.2541C12.7681 23.0773 10.3568 20.8844 7.83068 18.2955C6.56729 17.0007 5.27979 15.6116 4.2278 14.3291C3.166 13.0346 2.37729 11.8876 2.0718 11.0701L1.32241 11.3501ZM1.88281 3.43342C0.374059 5.54503 0.208193 8.37399 1.3225 11.3503L2.07171 11.0698C1.02236 8.26699 1.22162 5.73491 2.53373 3.89851L1.88281 3.43342ZM7.59442 0.6C5.26237 0.6 3.17493 1.62603 1.88287 3.43334L2.53367 3.89859C3.66491 2.31623 5.50179 1.4 7.59442 1.4V0.6ZM8.52059 0.656881C8.1981 0.619679 7.88649 0.6 7.59442 0.6V1.4C7.85138 1.4 8.13206 1.41737 8.42892 1.45161L8.52059 0.656881ZM13.3292 3.36801C12.5626 2.2522 11.1198 0.967443 8.52221 0.657071L8.4273 1.45142C10.7683 1.73113 12.0165 2.87022 12.6698 3.82103L13.3292 3.36801ZM17.4767 0.657083C14.8842 0.967531 13.4407 2.25382 12.6706 3.36693L13.3284 3.82211C13.9863 2.87125 15.2366 1.73105 17.5718 1.45141L17.4767 0.657083ZM18.4059 0.6C18.1125 0.6 17.8009 0.619674 17.4784 0.656881L17.5701 1.45161C17.8669 1.41737 18.1476 1.4 18.4059 1.4V0.6ZM7.59442 2.28645C7.83346 2.28645 8.07611 2.30014 8.31842 2.32868L8.41202 1.53418C8.13776 1.50186 7.86383 1.48645 7.59442 1.48645V2.28645ZM3.27632 4.4063C4.23228 3.06615 5.80056 2.28645 7.59442 2.28645V1.48645C5.56402 1.48645 3.74347 2.3738 2.62503 3.94173L3.27632 4.4063ZM2.92366 10.7682C1.97644 8.23786 2.13969 5.99601 3.27606 4.40666L2.62529 3.94137C1.28698 5.81315 1.16625 8.35548 2.17443 11.0486L2.92366 10.7682ZM13.2725 22.3278C12.3951 21.5163 10.0638 19.3306 7.81645 16.9825C6.69246 15.8081 5.5939 14.5977 4.70997 13.5012C3.81676 12.3931 3.17388 11.4385 2.92379 10.7685L2.1743 11.0483C2.47392 11.8509 3.19245 12.8933 4.08713 14.0032C4.99109 15.1247 6.10689 16.3533 7.23851 17.5357C9.50235 19.901 11.8473 22.0993 12.7292 22.9151L13.2725 22.3278ZM23.082 10.7672C22.8319 11.4371 22.1887 12.3917 21.295 13.5C20.4106 14.5967 19.3114 15.8073 18.1868 16.9818C15.9383 19.3302 13.606 21.5162 12.7291 22.3279L13.2726 22.915C14.1537 22.0993 16.4996 19.9007 18.7647 17.5351C19.8969 16.3526 21.0133 15.1237 21.9178 14.0022C22.8129 12.8921 23.5318 11.8496 23.8315 11.047L23.082 10.7672ZM22.7268 4.40777C23.8608 5.99603 24.0253 8.23692 23.0819 10.7673L23.8315 11.0468C24.8355 8.35378 24.7132 5.81313 23.3779 3.94291L22.7268 4.40777ZM17.6789 2.33005C19.7564 2.08718 21.633 2.87803 22.727 4.408L23.3778 3.94268C22.0972 2.15177 19.9223 1.26233 17.586 1.53546L17.6789 2.33005ZM13.7642 4.85333C14.2578 3.86824 15.3273 2.61175 17.68 2.32991L17.5849 1.53559C14.9233 1.85443 13.6426 3.31021 13.0489 4.49494L13.7642 4.85333ZM13.0037 5.30169C13.3092 5.29949 13.6166 5.15048 13.7648 4.852L13.0483 4.49627C13.0521 4.48863 13.0557 4.48806 13.0503 4.49108C13.0444 4.49443 13.0278 4.5015 12.998 4.50171L13.0037 5.30169ZM12.2397 4.85885C12.3902 5.15055 12.6949 5.3017 13.0009 5.3017V4.5017C12.9754 4.5017 12.9598 4.49556 12.9529 4.49169C12.9463 4.48798 12.948 4.48686 12.9506 4.49206L12.2397 4.85885ZM8.3177 2.3286C10.6731 2.61045 11.7439 3.86828 12.2375 4.85447L12.9529 4.49644C12.3592 3.31017 11.077 1.85308 8.41275 1.53426L8.3177 2.3286Z" fill="white" mask="url(#path-1-outside-1)"/>
</svg>
