<svg width="24" height="21" viewBox="0 0 24 21" fill="none" xmlns="http://www.w3.org/2000/svg">
<path fill-rule="evenodd" clip-rule="evenodd" d="M14.0114 2.14465e-05C8.19424 -0.159979 3.42853 4.51431 3.42853 10.2857H1.38281C0.868528 10.2857 0.617099 10.9029 0.982814 11.2572L4.17138 14.4572C4.39996 14.6857 4.75424 14.6857 4.98281 14.4572L8.17138 11.2572C8.52567 10.9029 8.27424 10.2857 7.75996 10.2857H5.71424C5.71424 5.82859 9.34853 2.22859 13.8285 2.28574C18.08 2.34288 21.6571 5.92002 21.7142 10.1714C21.7714 14.64 18.1714 18.2857 13.7142 18.2857C11.8742 18.2857 10.1714 17.6572 8.82281 16.5943C8.36567 16.24 7.72567 16.2743 7.31424 16.6857C6.83424 17.1657 6.86853 17.9772 7.40567 18.3886C9.14281 19.76 11.3257 20.5714 13.7142 20.5714C19.4857 20.5714 24.16 15.8057 24 9.98859C23.8514 4.62859 19.3714 0.148593 14.0114 2.14465e-05ZM13.4285 5.71431C12.96 5.71431 12.5714 6.10288 12.5714 6.57145V10.7772C12.5714 11.1772 12.7885 11.5543 13.1314 11.76L16.6971 13.8743C17.1085 14.1143 17.6342 13.9772 17.8742 13.5772C18.1142 13.1657 17.9771 12.64 17.5771 12.4L14.2857 10.4457V6.56002C14.2857 6.10288 13.8971 5.71431 13.4285 5.71431Z" fill="white"/>
</svg>
