<svg width="145" height="22" viewBox="0 0 145 22" fill="none" xmlns="http://www.w3.org/2000/svg">
<path fill-rule="evenodd" clip-rule="evenodd" d="M67.6609 2.01194L63.2529 16.3377L59.2422 2.59618C57.8723 3.18608 55.9308 3.18665 54.6791 2.75243L60.9041 21.7266H65.3666L72.2177 2.21291C70.9593 1.83021 69.1739 1.65188 67.6609 2.01194Z" fill="white"/>
<path fill-rule="evenodd" clip-rule="evenodd" d="M114.433 17.6712L114.436 15.4905H120.603L121.979 11.099H110.135V21.7269H123.358V17.6712H114.433Z" fill="white"/>
<path fill-rule="evenodd" clip-rule="evenodd" d="M5.26956 3.08077C3.20702 4.0528 1.31583 3.86938 0 3.57443V8.02246C2.31767 8.50593 4.6114 7.85885 6.59353 7.04363C10.7244 5.34469 13.2871 6.76057 14.1444 7.04363V2.49086C12.3705 1.84888 9.3889 1.13896 5.26956 3.08077Z" fill="white"/>
<path fill-rule="evenodd" clip-rule="evenodd" d="M0 21.727H4.2079L4.21795 16.4218H12.55V12.1012H0V21.727Z" fill="white"/>
<path fill-rule="evenodd" clip-rule="evenodd" d="M80.9732 2.18587C79.1423 2.97051 77.5427 3.29434 75.9305 2.94051V7.23116C78.2908 8.30737 80.8636 6.05419 82.3494 6.4318C82.818 7.94165 84.2123 12.1055 84.2123 12.1055H72.9896L72.9877 16.4222H75.4586L73.5353 21.7273H77.9514L79.7134 16.4222H85.6196L87.3456 21.7273H91.9259L84.7029 1.38367C84.0237 1.45726 82.7581 1.4216 80.9732 2.18587Z" fill="white"/>
<path fill-rule="evenodd" clip-rule="evenodd" d="M99.5235 2.78156C97.0987 3.79322 94.791 4.11195 91.507 2.45377V7.07957C93.335 7.91008 95.8508 8.15181 97.0714 7.91234V21.7275H101.369V6.82935C103.005 6.14773 104.6 5.92072 106.465 6.62837V1.99182C105.785 1.82821 104.953 1.70932 103.993 1.70932C103.001 1.70932 101.306 2.03824 99.5235 2.78156Z" fill="white"/>
<path fill-rule="evenodd" clip-rule="evenodd" d="M115.74 2.94871C112.944 4.0702 111.409 3.50181 110.135 3.08911V7.48789C112.551 7.97306 113.714 8.01892 117.036 6.8878C119.948 5.89708 121.381 5.97521 123.358 6.52265V2.13519C121.686 1.94667 119.967 1.25204 115.74 2.94871Z" fill="white"/>
<path fill-rule="evenodd" clip-rule="evenodd" d="M52.9955 9.36655C52.9955 6.70123 51.5715 3.85589 48.847 2.50229C45.975 1.07509 43.3228 1.93617 40.817 2.85216C38.383 3.74154 36.5617 3.43017 35.5359 3.18617V7.397C38.7243 8.10352 41.4345 7.05166 43.6473 6.28966C46.9381 5.15741 48.904 7.31604 48.904 9.32522C48.904 11.554 47.0329 12.1762 46.1565 12.1762H35.9399L37.2017 16.4923H38.7344V21.7975H43.0327V16.4923H46.2613L48.6225 21.7975H53.4843L50.1935 15.3539C51.46 14.4379 52.9955 12.7163 52.9955 9.36655Z" fill="white"/>
<path fill-rule="evenodd" clip-rule="evenodd" d="M140.551 14.4381C142.904 13.1643 143.537 10.4401 143.537 8.52099C143.537 6.15855 142.216 1.47501 136.883 1.47501C133.052 1.47501 131.499 3.83404 126.795 3.03185V7.41931C129.704 8.04827 131.675 7.46743 133.674 6.66523C134.969 6.14553 139.549 5.2018 139.549 8.80122C139.549 10.6139 137.964 11.0991 136.703 11.0991L126.965 11.0952V15.4905H128.809V21.727H133.107V15.4905H136.49L139.169 21.727H144.031L140.551 14.4381Z" fill="white"/>
<path fill-rule="evenodd" clip-rule="evenodd" d="M22.7665 2.50418C20.4909 3.61548 18.1292 3.75248 18.1292 3.75248V8.18919C21.7192 8.18919 25.3163 5.57993 25.7619 6.68444L27.5042 12.1056H16.7114V16.4218H18.7735L16.8478 21.7281H21.263L23.0278 16.4218H28.9316L30.6576 21.7281H35.2379L28.0916 1.52308C26.2367 1.21058 25.0999 1.36457 22.7665 2.50418Z" fill="white"/>
</svg>
