<svg width="20" height="20" viewBox="0 0 20 20" fill="none" xmlns="http://www.w3.org/2000/svg">
<path fill-rule="evenodd" clip-rule="evenodd" d="M3.15787 6.31578C4.90192 6.31578 6.31575 4.90195 6.31575 3.15789C6.31575 1.41384 4.90192 0 3.15787 0C1.41383 0 0 1.41384 0 3.15789C0 4.90195 1.41383 6.31578 3.15787 6.31578ZM16.8421 6.31578C18.5862 6.31578 20 4.90195 20 3.15789C20 1.41384 18.5862 0 16.8421 0C15.0981 0 13.6843 1.41384 13.6843 3.15789C13.6843 4.90195 15.0981 6.31578 16.8421 6.31578ZM6.31575 16.8421C6.31575 18.5861 4.90192 20 3.15787 20C1.41383 20 0 18.5861 0 16.8421C0 15.098 1.41383 13.6842 3.15787 13.6842C4.90192 13.6842 6.31575 15.098 6.31575 16.8421ZM16.8421 20C18.5862 20 20 18.5861 20 16.8421C20 15.098 18.5862 13.6842 16.8421 13.6842C15.0981 13.6842 13.6842 15.098 13.6842 16.8421C13.6842 18.5861 15.0981 20 16.8421 20Z" fill="white"/>
</svg>
