<svg width="30" height="30" viewBox="0 0 30 30" fill="none" xmlns="http://www.w3.org/2000/svg">
<path d="M27.3047 7.08984H19.9578L20.1842 8.45455C20.3498 9.44502 19.9473 10.4286 19.1328 11.02C18.3098 11.6204 17.2375 11.6769 16.3707 11.2286L15 10.5171L13.631 11.2277C12.7645 11.6748 11.6907 11.6219 10.8638 11.0174C10.0527 10.4286 9.65016 9.44502 9.8158 8.45279L10.0422 7.08984H2.69531C1.24137 7.08984 0 8.27262 0 9.72656V23.7891C0 25.243 1.24137 26.4258 2.69531 26.4258H12.3152L14.255 29.5871C14.4155 29.8438 14.697 30 15 30C15.303 30 15.5845 29.8438 15.745 29.5871L17.6848 26.4258H27.3047C28.7586 26.4258 30 25.243 30 23.7891V9.72656C30 8.27262 28.7586 7.08984 27.3047 7.08984ZM12.7649 16.9055L11.0166 18.6264L11.4191 21.0476C11.4741 21.3763 11.3384 21.7068 11.0689 21.9025C10.8057 22.0948 10.4492 22.1282 10.1471 21.9721L7.96875 20.8416L5.79035 21.972C5.49422 22.1248 5.13545 22.0982 4.86855 21.9025C4.59902 21.7068 4.46344 21.3763 4.51834 21.0476L4.92088 18.6263L3.1725 16.9054C2.93561 16.6711 2.85064 16.3235 2.95365 16.0076C3.05666 15.6909 3.32959 15.4592 3.6583 15.4094L6.08561 15.0446L7.18254 12.849C7.47949 12.2534 8.45801 12.2534 8.75496 12.849L9.8519 15.0446L12.2792 15.4094C12.6079 15.4592 12.8809 15.6909 12.9838 16.0076C13.0869 16.3235 13.0018 16.6712 12.7649 16.9055ZM26.8274 16.9055L25.0791 18.6264L25.4816 21.0476C25.5366 21.3763 25.4009 21.7068 25.1314 21.9025C24.8682 22.0948 24.5117 22.1282 24.2096 21.9721L22.0312 20.8416L19.8529 21.972C19.5567 22.1248 19.1979 22.0982 18.9311 21.9025C18.6615 21.7068 18.5259 21.3763 18.5808 21.0476L18.9834 18.6263L17.235 16.9054C16.9981 16.6711 16.9131 16.3235 17.0162 16.0076C17.1192 15.6909 17.3921 15.4592 17.7208 15.4094L20.1481 15.0446L21.245 12.849C21.542 12.2534 22.5205 12.2534 22.8175 12.849L23.9144 15.0446L26.3417 15.4094C26.6704 15.4592 26.9434 15.6909 27.0463 16.0076C27.1494 16.3235 27.0643 16.6712 26.8274 16.9055Z" fill="white"/>
<path d="M20.0142 3.70213C19.9112 3.38625 19.6383 3.15451 19.3096 3.10477L16.8832 2.73996L15.7862 0.446778C15.4875 -0.148885 14.5125 -0.148885 14.2138 0.446778L13.1169 2.73996L10.6904 3.10477C10.3617 3.15457 10.0887 3.38631 9.9858 3.70213C9.88279 4.01883 9.96775 4.36646 10.2046 4.5999L11.9521 6.32168L11.5496 8.74295C11.4946 9.07166 11.6303 9.40213 11.8998 9.59783C12.1668 9.79265 12.5255 9.82013 12.8216 9.66738L15 8.53693L17.1784 9.66732C17.4805 9.82341 17.8371 9.79008 18.1002 9.59777C18.3697 9.40207 18.5053 9.07166 18.4504 8.74289L18.0479 6.32162L19.7954 4.59984C20.0323 4.36646 20.1172 4.01883 20.0142 3.70213Z" fill="white"/>
</svg>
