<svg width="32" height="32" viewBox="0 0 32 32" fill="none" xmlns="http://www.w3.org/2000/svg">
<circle cx="16" cy="16" r="16" fill="white"/>
<circle cx="16" cy="16" r="15" stroke="white" stroke-opacity="0.2" stroke-width="2"/>
<mask id="mask0" mask-type="alpha" maskUnits="userSpaceOnUse" x="1" y="1" width="30" height="30">
<path d="M30.2174 16C30.2177 17.9697 29.8401 19.9202 29.1061 21.7401C28.3722 23.5599 27.2963 25.2135 25.9398 26.6065C24.5833 27.9994 22.9729 29.1043 21.2005 29.8581C19.4281 30.612 17.5284 31 15.6099 31C11.7351 31 8.01903 29.4196 5.27914 26.6066C2.53925 23.7936 1 19.9782 1 16C1 12.0217 2.53925 8.20644 5.27914 5.39339C8.01903 2.58035 11.7351 1 15.6099 1C17.5284 1 19.4281 1.388 21.2005 2.14185C22.9729 2.89571 24.5833 4.00063 25.9398 5.39355C27.2963 6.78646 28.3722 8.44006 29.1061 10.2599C29.8401 12.0798 30.2177 14.0303 30.2174 16Z" fill="white"/>
</mask>
<g mask="url(#mask0)">
<mask id="mask1" mask-type="alpha" maskUnits="userSpaceOnUse" x="1" y="-1" width="30" height="32">
<path d="M30.913 14.9287C30.913 16.9451 30.5262 18.9417 29.7746 20.8046C29.0231 22.6675 27.9215 24.3602 26.5327 25.786C25.144 27.2118 23.4954 28.3428 21.6809 29.1145C19.8664 29.8861 17.9217 30.2833 15.9578 30.2833C11.9907 30.2833 8.18615 28.6653 5.38103 25.7853C2.57591 22.9052 1 18.9991 1 14.9261C1 12.9095 1.38691 10.9127 2.13864 9.04959C2.89037 7.18652 3.99218 5.49373 5.38117 4.06789C6.77016 2.64205 8.41912 1.51109 10.2339 0.739597C12.0486 -0.031894 13.9936 -0.428801 15.9578 -0.428467C17.9219 -0.428467 19.8669 -0.0312247 21.6815 0.740575C23.4961 1.51238 25.1449 2.64361 26.5336 4.06969C27.9224 5.49576 29.0239 7.18874 29.7754 9.05194C30.5268 10.9151 30.9134 12.9121 30.913 14.9287Z" fill="white"/>
</mask>
<g mask="url(#mask1)">
<path d="M23.4586 32.6621L15.8904 32.7805L8.46817 32.6621C8.27293 31.9794 8.25589 31.2559 8.41874 30.5643C8.61412 29.7594 9.12494 28.8724 10.2596 28.1474C10.8484 27.7847 11.4818 27.5043 12.1428 27.3136C12.3288 27.2604 12.5218 27.2072 12.7266 27.1589C12.9314 27.1105 13.1833 27.055 13.4328 27.0114C13.6823 26.9679 13.9436 26.922 14.2191 26.8858L14.2638 26.9099C14.2 25.9419 13.9993 24.9885 13.6682 24.0798L18.009 24.2562C17.7738 25.068 17.6681 25.9136 17.6959 26.7601L17.7148 26.7456C18.208 26.809 18.6975 26.8993 19.1813 27.0163L19.4874 27.0936C19.7416 27.1645 19.9817 27.2394 20.2077 27.3184C20.607 27.4555 20.9938 27.6286 21.3635 27.8356C22.2839 28.3063 23.0036 29.108 23.3856 30.0881C23.7004 30.9114 23.7262 31.8215 23.4586 32.6621Z" fill="#CD8B6D"/>
<path d="M23.6376 31.6349C23.6376 31.7534 23.6235 31.8766 23.6117 31.966C23.5843 32.2005 23.533 32.4314 23.4587 32.6548L15.8905 32.7733L8.46831 32.6548C8.37494 32.3412 8.32347 32.016 8.3153 31.6881C8.3153 31.6518 8.3153 31.618 8.3153 31.5793C8.30723 31.2353 8.34284 30.8916 8.42123 30.557C8.46233 30.393 8.51263 30.2316 8.57188 30.0736C8.6072 29.989 8.64722 29.902 8.68724 29.8174C9.04862 29.114 9.59401 28.5281 10.2621 28.1256L10.3704 28.0555L10.5281 27.9661C11.0434 27.6836 11.5862 27.4575 12.1476 27.2918C12.3336 27.2386 12.5266 27.1855 12.7314 27.1371C12.9362 27.0888 13.1881 27.0332 13.4377 26.9897C14.3369 28.302 16.3284 30.0785 19.4922 27.0719C19.7464 27.1428 19.9865 27.2177 20.2125 27.2966C20.6119 27.4338 20.9987 27.6069 21.3684 27.8138C21.4272 27.8453 21.4837 27.8791 21.5402 27.9129C21.665 27.9879 21.7756 28.0628 21.891 28.1425C22.5693 28.6169 23.0921 29.291 23.3905 30.076C23.4234 30.163 23.454 30.2501 23.4776 30.3346C23.5073 30.4189 23.5309 30.5054 23.5482 30.5933C23.6259 30.9344 23.656 31.2851 23.6376 31.6349Z" fill="#FFAC30"/>
<path d="M21.8863 28.157C19.7677 29.3969 17.3618 30.3322 15.0737 30.1026C13.3459 29.9071 11.7104 29.201 10.3657 28.07L10.5234 27.9806C12.1712 29.2712 14.2239 30.0591 16.2366 29.8198C18.1599 29.5782 19.8807 28.841 21.5332 27.9274C21.6603 28.0096 21.7756 28.0773 21.8863 28.157Z" fill="white"/>
<path d="M23.5434 30.5981C21.1191 31.3831 18.5774 31.7154 16.0388 31.5793C13.9202 31.4416 11.7686 31.2434 9.7512 30.5425C9.35102 30.4023 8.95868 30.2501 8.57419 30.0857C8.6095 30.0011 8.64951 29.9141 8.68953 29.8295C11.1795 30.7741 13.8042 31.2902 16.4578 31.357C18.6874 31.4564 20.917 31.1612 23.0491 30.4845C23.195 30.4386 23.3386 30.3878 23.4822 30.3395C23.5088 30.424 23.5292 30.5105 23.5434 30.5981Z" fill="white"/>
<path d="M10.5115 13.1289C10.5115 13.1289 8.47765 9.6027 7.63726 12.6262C6.79688 15.6497 8.8284 17.0853 10.1608 16.7977C11.4932 16.5101 10.5115 13.1289 10.5115 13.1289Z" fill="#CD8B6D"/>
<path d="M10.2643 13.7041C10.2643 13.7041 8.86366 11.4733 8.38109 12.3724C7.89851 13.2715 8.03034 14.4244 8.03034 14.4244C8.03034 14.4244 8.31047 13.1652 9.22148 13.883C9.22148 13.883 8.34578 15.8986 10.1325 15.3331C10.1254 15.3234 10.8622 14.7168 10.2643 13.7041Z" fill="#B66C50"/>
<path d="M21.2411 12.6963C21.2411 12.6963 23.2726 9.17005 24.1153 12.1936C24.9581 15.2171 22.9242 16.6551 21.5918 16.3651C20.2594 16.0751 21.2411 12.6963 21.2411 12.6963Z" fill="#CD8B6D"/>
<path d="M21.2717 13.5084C21.2717 13.5084 22.6842 11.2776 23.155 12.1791C23.6258 13.0806 23.5057 14.2286 23.5057 14.2286C23.5057 14.2286 23.2256 12.9694 22.3146 13.6896C22.3146 13.6896 23.1903 15.7029 21.4036 15.1277C21.413 15.1253 20.6762 14.5138 21.2717 13.5084Z" fill="#B66C50"/>
<path d="M10.6482 8.27342C10.4457 8.48369 10.1585 14.4606 10.2974 16.7639C10.4363 19.0672 11.279 25.542 16.3261 25.542C21.3731 25.542 22.2111 16.6914 21.02 8.84864C21.0223 8.84864 15.6269 3.09163 10.6482 8.27342Z" fill="#E8B299"/>
<path d="M12.3172 12.1791C11.7075 12.6262 11.3591 13.7162 11.7122 14.4171C11.7168 14.4241 11.7234 14.4295 11.7312 14.4325C11.7389 14.4355 11.7473 14.4359 11.7553 14.4338C11.7633 14.4317 11.7704 14.4271 11.7758 14.4206C11.7811 14.4142 11.7844 14.4062 11.7851 14.3978C11.7549 14.0804 11.7862 13.7601 11.8771 13.4552C11.968 13.1503 12.1168 12.8669 12.3148 12.6214C12.4339 12.4849 12.5788 12.3747 12.7407 12.2974C12.9025 12.2201 13.078 12.1774 13.2564 12.1718C13.6542 12.138 13.8331 12.5706 14.1462 12.7204C14.161 12.7289 14.1779 12.7328 14.1948 12.7316C14.2117 12.7303 14.2279 12.7241 14.2414 12.7136C14.2549 12.7031 14.2651 12.6887 14.2707 12.6724C14.2764 12.656 14.2773 12.6383 14.2734 12.6214C14.0285 11.715 12.9316 11.7319 12.3172 12.1791Z" fill="#390A0A"/>
<path d="M14.4357 14.2092C14.4357 15.3814 13.8401 16.3313 13.1033 16.3313C12.3665 16.3313 11.7733 15.3814 11.7733 14.2092C11.7733 13.0371 12.3689 12.0872 13.1033 12.0872C13.8378 12.0872 14.4357 13.0371 14.4357 14.2092Z" fill="white"/>
<path d="M14.1533 14.2793C14.1533 15.1518 13.6989 15.86 13.1387 15.86C12.5784 15.86 12.1265 15.1518 12.1265 14.2793C12.1265 13.4068 12.5784 12.6987 13.1387 12.6987C13.6989 12.6987 14.1533 13.4068 14.1533 14.2793Z" fill="#3D79CA"/>
<path d="M13.9932 14.2963C13.9932 15.0334 13.6189 15.6304 13.1599 15.6304C12.7009 15.6304 12.3289 15.0334 12.3289 14.2963C12.3289 13.5591 12.7032 12.9646 13.1599 12.9646C13.6166 12.9646 13.9932 13.5615 13.9932 14.2963Z" fill="#390A0A"/>
<path d="M14.1532 13.1483C14.1532 13.2933 13.9178 13.4117 13.6283 13.4117C13.3387 13.4117 13.1033 13.2933 13.1033 13.1483C13.1033 13.0033 13.3387 12.8872 13.6283 12.8872C13.9178 12.8872 14.1532 13.0033 14.1532 13.1483Z" fill="white"/>
<path d="M19.4686 12.1791C20.0783 12.6262 20.429 13.7162 20.0736 14.4171C20.069 14.4241 20.0623 14.4295 20.0546 14.4325C20.0469 14.4355 20.0385 14.4359 20.0305 14.4338C20.0225 14.4317 20.0153 14.4271 20.01 14.4206C20.0046 14.4142 20.0014 14.4062 20.0006 14.3978C20.0319 14.0804 20.0011 13.7598 19.9102 13.4547C19.8192 13.1497 19.6699 12.8664 19.471 12.6214C19.3518 12.4849 19.2069 12.3747 19.0451 12.2974C18.8832 12.2201 18.7078 12.1774 18.5294 12.1718C18.1315 12.138 17.9526 12.5706 17.6395 12.7204C17.6248 12.7282 17.6082 12.7315 17.5917 12.7299C17.5753 12.7284 17.5596 12.722 17.5465 12.7116C17.5334 12.7012 17.5234 12.6872 17.5178 12.6712C17.5122 12.6552 17.5112 12.6379 17.5148 12.6214C17.7572 11.715 18.8566 11.7319 19.4686 12.1791Z" fill="#390A0A"/>
<path d="M19.9183 14.2092C19.9183 15.3814 19.3228 16.3313 18.5883 16.3313C17.8538 16.3313 17.2559 15.3814 17.2559 14.2092C17.2559 13.0371 17.8515 12.0872 18.5883 12.0872C19.3251 12.0872 19.9183 13.0371 19.9183 14.2092Z" fill="white"/>
<path d="M19.6358 14.2793C19.6358 15.1518 19.1814 15.86 18.6212 15.86C18.0609 15.86 17.6089 15.1518 17.6089 14.2793C17.6089 13.4068 18.0633 12.6987 18.6212 12.6987C19.1791 12.6987 19.6358 13.4068 19.6358 14.2793Z" fill="#3D79CA"/>
<path d="M19.4756 14.2963C19.4756 15.0334 19.1037 15.6304 18.6447 15.6304C18.1856 15.6304 17.8137 15.0334 17.8137 14.2963C17.8137 13.5591 18.1856 12.9646 18.6447 12.9646C19.1037 12.9646 19.4756 13.5615 19.4756 14.2963Z" fill="#390A0A"/>
<path d="M19.6357 13.1483C19.6357 13.2933 19.4003 13.4117 19.1108 13.4117C18.8212 13.4117 18.5882 13.2933 18.5882 13.1483C18.5882 13.0033 18.8236 12.8872 19.1108 12.8872C19.398 12.8872 19.6357 13.0033 19.6357 13.1483Z" fill="white"/>
<path d="M11.4366 12.4038C11.4366 12.4038 12.463 10.3519 14.5769 12.1621C14.5769 12.1694 12.8632 11.5241 11.4366 12.4038Z" fill="#7C2C14"/>
<path d="M17.2606 12.1694C17.2606 12.1694 18.2893 10.1175 20.4032 11.9277C20.4032 11.935 18.6895 11.2897 17.2606 12.1694Z" fill="#7C2C14"/>
<path d="M21.8156 11.8166C21.8156 11.7296 21.7968 11.645 21.7874 11.5749C21.778 11.5048 21.7638 11.4154 21.7591 11.3501C21.6438 10.3229 22.7925 8.9864 22.2299 7.99065C22.0581 7.68612 21.7262 7.58461 21.4249 7.4831C20.2714 7.09882 20.6598 5.68736 20.6833 4.79795C20.7045 4.15989 20.5209 3.0723 19.777 2.88137L19.6664 2.85479C19.5764 2.83625 19.4851 2.82573 19.3933 2.82336C19.1178 2.82355 18.8451 2.8794 18.5906 2.98771C18.4117 3.06022 17.1782 3.97138 17.0723 3.69585C16.5662 2.42941 15.6104 2.1273 14.7583 2.46566C14.6047 2.5291 14.4586 2.61018 14.3228 2.70735C13.8405 3.0509 13.4731 3.53868 13.2705 4.10431C13.2281 4.21307 13.0845 6.2795 12.4984 5.64386C12.2324 5.35867 11.8934 4.88013 11.4768 4.79312C10.5351 4.59977 9.97253 5.18224 9.44994 5.92905C8.88262 6.74112 8.52245 7.86255 8.73196 8.86556C8.87086 9.53705 9.07838 10.1916 9.35107 10.8184C9.39815 10.9272 9.44052 11.0383 9.48289 11.1543C9.52526 11.2704 9.54175 11.3211 9.57 11.396C9.70127 11.8486 9.8846 12.2835 10.1161 12.6915C10.104 12.7168 10.0992 12.7452 10.1023 12.7732C10.1054 12.8012 10.1162 12.8278 10.1336 12.8497C10.1509 12.8715 10.174 12.8879 10.2002 12.8967C10.2263 12.9055 10.2543 12.9064 10.2809 12.8993C11.1637 12.7253 11.6557 11.6377 11.8911 10.8377C12.0466 10.3767 12.1462 9.89779 12.1877 9.41177C12.4931 9.632 12.8245 9.81148 13.174 9.9459C13.4919 10.0521 13.8337 10.0564 14.1541 9.95844C14.4745 9.86045 14.7583 9.66473 14.9678 9.39727C15.4598 9.95557 16.3637 10.2021 16.9993 9.75739C17.2237 9.56593 17.3828 9.30603 17.4536 9.0154C17.5193 8.75245 17.5673 8.48515 17.5972 8.21542C17.8444 7.00698 19.4498 7.50485 19.7017 8.271C19.89 8.84138 19.6782 9.57371 19.7017 10.1658C19.7253 10.6828 19.8418 11.1908 20.0454 11.6643C20.2596 12.1622 20.7516 13.0951 21.4413 12.8993C21.8462 12.7833 21.8651 12.2661 21.8227 11.8262L21.8156 11.8166Z" fill="#A6562F"/>
<path d="M10.3467 11.0721C10.1081 11.2291 9.84307 11.3389 9.56519 11.396C9.53694 11.3114 9.50634 11.2268 9.47809 11.1543C10.2149 10.9126 11.0953 9.97005 11.2695 9.37308C11.3673 9.10697 11.4086 8.82248 11.3908 8.53865C11.3729 8.25482 11.2963 7.97816 11.1659 7.72718C10.987 7.43232 10.4597 6.64684 9.97008 7.2293C9.48515 7.7731 9.61463 8.05588 10.3679 8.07521C10.3848 8.0534 10.4089 8.03858 10.4356 8.03347C10.4623 8.02836 10.4899 8.03331 10.5134 8.0474C10.5368 8.06149 10.5545 8.08379 10.5633 8.1102C10.572 8.13662 10.5712 8.16538 10.5609 8.19122C10.0713 9.18214 9.24269 8.24681 9.49222 7.44199C9.89476 6.13446 11.14 7.0142 11.5026 7.7586C12.0605 8.88487 11.3236 10.4413 10.3467 11.0721Z" fill="#D8744C"/>
<path d="M14.7536 2.46564C14.6024 2.72954 14.4664 3.00231 14.3463 3.28254C13.9679 4.09332 13.8517 5.00698 14.0144 5.89036C14.2498 7.01662 15.1655 8.64801 16.4791 7.64259C16.7653 7.45414 16.979 7.16975 17.0841 6.83777C17.3367 6.00475 16.8228 5.5971 15.5422 5.61483C15.3444 5.83235 14.8525 6.36406 15.3798 6.61058C15.5069 6.66859 15.4151 6.86677 15.2879 6.83294C14.7324 6.70001 14.763 6.16588 15.0737 5.73809C15.2387 5.48191 15.4807 5.28819 15.763 5.18651C16.0452 5.08483 16.3521 5.08077 16.6368 5.17495C17.3124 5.34897 17.5784 6.31089 17.3548 6.91269C17.246 7.22318 17.0625 7.50036 16.8213 7.71842C16.5801 7.93648 16.2891 8.08832 15.9753 8.1598C13.932 8.71568 13.4283 5.45531 13.7861 4.08978C13.9223 3.61025 14.1003 3.14432 14.3181 2.69766L14.7536 2.46564Z" fill="#D8744C"/>
<path d="M21.8156 11.8166C21.5595 11.7657 21.3221 11.6431 21.1297 11.4622C20.9373 11.2813 20.7975 11.0493 20.7257 10.7918C20.6151 10.4389 20.7681 10.0015 20.8269 9.66069C21.02 8.56343 20.4573 7.99305 19.8453 7.22206C19.3274 6.56951 18.8378 5.70427 18.8401 4.83178C18.8743 4.1263 19.0617 3.43761 19.3886 2.8161C19.4804 2.81847 19.5717 2.82898 19.6617 2.84752C19.362 3.34171 19.173 3.89812 19.1085 4.47649C19.1124 5.29619 19.375 6.09248 19.8571 6.74594C20.3702 7.471 21.0011 8.04381 21.1659 8.95739C21.2342 9.33925 21.0717 9.72112 21.0223 10.0885C20.8928 11.0407 21.286 11.4589 21.7874 11.5676C21.7968 11.6522 21.8086 11.7368 21.8156 11.8166Z" fill="#D8744C"/>
<path d="M21.3236 20.0339C21.2659 19.9569 21.2013 19.8857 21.1305 19.8213C20.7115 19.4418 20.1889 19.4104 19.5698 19.292C19.1727 19.2448 18.7708 19.3126 18.4093 19.4877C18.3374 19.4897 18.2661 19.502 18.1974 19.524C17.6466 19.7028 17.4912 19.3282 17.0722 19.159C16.4638 18.8887 15.7841 18.8384 15.1442 19.0164C14.7817 19.1228 14.438 19.4152 14.0943 19.5627C13.673 19.7415 12.9927 19.5868 12.543 19.5627C11.8779 19.4707 11.2019 19.6093 10.6222 19.9566C9.82415 20.44 9.57462 21.3584 9.63112 22.2454C9.63787 22.3572 9.65044 22.4685 9.66878 22.5789C9.70277 22.8151 9.75873 23.0474 9.83591 23.2726C10.3067 24.6671 11.6156 25.4647 12.875 25.9988C14.2497 26.5764 15.8198 26.8592 17.2464 26.6103C17.3617 26.5909 17.4818 26.5668 17.5924 26.5378C18.2886 26.3803 18.9403 26.0606 19.497 25.6034C20.0538 25.1462 20.5007 24.5637 20.8033 23.9009C21.3589 22.7529 22.0863 21.0635 21.3236 20.0339Z" fill="#8E3F20"/>
<path d="M17.5877 26.5208C17.4747 26.5498 17.3523 26.574 17.2417 26.5933C17.5097 26.3103 17.7158 25.9718 17.8461 25.6004C17.9764 25.2291 18.0279 24.8334 17.9973 24.4399C17.8631 23.3426 16.8038 22.8617 15.8222 23.1445C15.333 23.2579 14.8811 23.5003 14.511 23.8478C14.3156 24.0604 14.0943 24.3432 14.1273 24.6623C14.3839 25.3196 14.7605 25.4937 15.2525 25.1843V24.6623C15.1089 24.5656 15.2525 24.3311 15.3914 24.4206C16.5684 25.1456 14.285 26.3541 13.8778 24.8725C13.4988 23.4901 15.8481 22.5402 16.8415 22.8254C18.6117 23.3402 18.5105 25.2568 17.5877 26.5208Z" fill="#B75B3E"/>
<path d="M20.3609 24.4447C19.1838 25.5033 18.6 23.6762 18.9484 22.7046C19.311 21.6798 20.0689 20.353 21.1283 19.8043C21.199 19.8688 21.2637 19.94 21.3213 20.017C20.9169 20.2129 20.5587 20.4966 20.2714 20.8484C19.7729 21.39 19.4017 22.0414 19.1862 22.7529C19.0191 23.2098 19.0334 23.7158 19.2262 24.162L20.1678 24.232C20.3688 24.0017 20.5104 23.7233 20.5798 23.4224L20.1702 22.6466C20.1137 22.7167 20.0195 22.6466 20.0336 22.5644L20.0666 22.3928C20.0721 22.3709 20.0833 22.351 20.0991 22.3352C20.1149 22.3194 20.1346 22.3084 20.1561 22.3034C21.2742 22.0762 20.8199 24.0266 20.3609 24.4447Z" fill="#B75B3E"/>
<path d="M12.7667 23.9009C12.4442 24.1426 11.7757 24.4955 11.4461 24.0339C11.1989 23.6834 11.126 23.2218 11.512 22.9487C11.529 22.938 11.5486 22.9324 11.5685 22.9324C11.5885 22.9324 11.608 22.938 11.625 22.9487L11.7474 23.0188C11.7569 23.025 11.7645 23.0338 11.7692 23.0443C11.774 23.0547 11.7757 23.0664 11.7742 23.0778C11.7728 23.0892 11.7681 23.1 11.7609 23.1088C11.7536 23.1176 11.744 23.1241 11.7333 23.1275C11.0742 23.2846 12.3265 24.1064 12.7667 23.5457C13.1292 23.0284 13.1222 22.5547 12.7455 22.1245C12.4399 21.8054 12.0493 21.586 11.6227 21.4937C11.226 21.4031 10.8109 21.4597 10.4511 21.6535C10.0912 21.8473 9.80989 22.1657 9.65705 22.5523C9.63871 22.4419 9.62614 22.3306 9.61938 22.2188C9.76851 21.8644 10.0329 21.5742 10.3674 21.3978C10.7019 21.2215 11.0857 21.17 11.4532 21.252C12.5172 21.4647 14.1556 22.8665 12.7667 23.9009Z" fill="#B75B3E"/>
<path d="M18.3457 20.614C18.3457 20.614 16.0623 23.7801 13.148 20.614C13.148 20.614 14.9206 20.1451 15.5491 20.614L15.7845 20.8557C15.7845 20.8557 16.4625 20.1451 18.3457 20.614Z" fill="#B66C50"/>
<path d="M18.3457 20.614C18.3457 20.614 16.0623 23.7801 13.148 20.614C13.148 20.614 16.0623 21.8466 18.3457 20.614Z" fill="#CD8B6D"/>
<path d="M18.221 10.8957C17.2912 11.0721 16.4814 11.3791 15.5162 11.1954C14.9862 11.0545 14.4391 10.9934 13.8919 11.0141C13.8496 11.0141 13.8307 11.0866 13.8919 11.0963C15.4527 11.367 16.7568 11.6691 18.2657 10.9755C18.301 10.9537 18.2657 10.8885 18.221 10.8957Z" fill="#CD8B6D"/>
<path d="M17.4465 10.4776C17.0322 10.447 16.6159 10.4575 16.2036 10.509C15.6598 10.5404 15.1231 10.3882 14.5769 10.4148C14.5648 10.4174 14.5539 10.4242 14.5461 10.4341C14.5383 10.444 14.534 10.4564 14.534 10.4691C14.534 10.4819 14.5383 10.4942 14.5461 10.5041C14.5539 10.514 14.5648 10.5209 14.5769 10.5235C15.5539 10.6154 16.4602 10.7652 17.4465 10.5791C17.4959 10.5694 17.4983 10.4824 17.4465 10.4776Z" fill="#CD8B6D"/>
<path d="M16.2319 17.4406C16.0694 17.1482 16.2319 16.5947 16.2319 16.2515C16.2319 15.7947 16.2672 15.35 16.2672 14.8908C16.2672 14.5259 16.359 13.6824 16.0883 13.3029C16.0647 12.9476 15.7516 12.967 15.601 13.2715C15.3491 13.7815 15.3915 14.4509 15.3915 15.0092C15.3915 15.4926 15.3797 15.9816 15.3562 16.4763C15.3397 16.8026 15.3562 17.2908 15.2267 17.5784C14.81 17.3367 14.3039 17.1385 14.6288 17.8418C14.7912 18.1947 15.3491 18.9681 15.7775 18.9222C16.2483 18.8762 16.8604 18.0763 17.0299 17.663C17.2794 17.0298 16.5661 17.2207 16.2319 17.4406Z" fill="#CD8B6D"/>
</g>
</g>
</svg>
